<?xml version="1.0" encoding="UTF-8" standalone="no"?><!DOCTYPE svg PUBLIC "-//W3C//DTD SVG 1.1//EN" "http://www.w3.org/Graphics/SVG/1.1/DTD/svg11.dtd"><svg width="100%" height="100%" viewBox="0 0 2484 3509" version="1.1" xmlns="http://www.w3.org/2000/svg" xmlns:xlink="http://www.w3.org/1999/xlink" xml:space="preserve" xmlns:serif="http://www.serif.com/" style="fill-rule:evenodd;clip-rule:evenodd;stroke-linejoin:round;stroke-miterlimit:2;"><g><path d="M672.929,1726.88c-27.954,34.562 -110.083,37.896 -144.892,0.746l0.296,-832.75c33.809,-22.546 89.609,-30.529 153.646,-7.179c0,-0 198.075,621.041 201.296,621.262c3.329,0.229 176.358,-618.533 176.358,-618.533c48.905,-25.588 118.105,-18.213 156.317,4.479l-0.4,831.983c-27.779,30.646 -109.954,33.192 -144.587,-0.75c1.899,2.855 -0.392,-375.091 0.516,-514.4c0.188,-29.345 -73.142,289.8 -124.954,456.296c-42,37.467 -71.213,38.592 -120.421,1.354c-1.429,0 -151.196,-467.533 -152.366,-458.412l-0.809,515.904Z" style="fill-rule:nonzero;"/><path d="M1806.12,1630.4c-48.809,45.012 -95.788,76.783 -140.938,95.316c-45.146,18.538 -93.592,27.805 -145.329,27.805c-85.417,-0 -151.062,-22.638 -196.942,-67.917c-45.883,-45.275 -68.825,-103.125 -68.825,-173.554c0,-41.304 8.667,-79.033 25.992,-113.188c17.329,-34.154 40.025,-61.554 68.092,-82.212c28.062,-20.65 59.666,-36.271 94.808,-46.863c25.871,-7.412 64.917,-14.562 117.146,-21.445c106.404,-13.771 184.741,-30.184 235.012,-49.25c0.492,-19.592 0.734,-32.034 0.734,-37.33c-0,-58.25 -12.446,-99.287 -37.338,-123.116c-33.679,-32.305 -83.708,-48.454 -150.087,-48.454c-61.988,-0 -107.746,11.783 -137.279,35.345c-29.53,23.567 -51.371,65.267 -65.526,125.105c-42.949,10.741 -85.904,2.841 -128.854,-19.063c11.713,-59.838 30.992,-108.158 57.838,-144.963c26.846,-36.804 65.65,-65.133 116.408,-84.991c50.763,-19.859 109.579,-29.788 176.446,-29.788c66.379,0 120.317,8.475 161.804,25.421c41.488,16.946 71.992,38.259 91.517,63.942c19.525,25.683 33.191,58.117 41,97.3c4.392,24.358 6.587,68.312 6.587,131.854l0,190.638c0,132.912 2.321,317.033 11.567,349.333c-45.879,22.958 -80.137,24.708 -126.021,4.129c-7.454,-29.654 1.229,-64.338 -7.812,-104.054Zm-10.984,-319.308c-47.829,21.183 -119.579,39.183 -215.245,54.016c-54.18,8.467 -92.496,18 -114.946,28.592c-22.455,10.587 -39.779,26.079 -51.984,46.467c-12.2,20.387 -18.304,43.024 -18.304,67.912c0,38.125 13.304,69.9 39.904,95.317c26.6,25.416 65.525,38.125 116.775,38.125c50.763,-0 95.909,-12.046 135.446,-36.142c39.534,-24.092 68.575,-57.054 87.125,-98.887c14.154,-32.305 21.229,-79.963 21.229,-142.976l0,-52.424Z" style="fill-rule:nonzero;"/><path d="M1995.16,1841.36c0,-10.991 -4.366,-21.537 -12.141,-29.308c-7.775,-7.775 -18.317,-12.142 -29.309,-12.142l-1249.92,0c-131.983,0 -238.97,106.992 -238.97,238.971l-0,687.984c-0,23.47 19.025,42.495 42.491,42.495l1254.09,0c129.104,0 233.762,-104.658 233.762,-233.762l0,-694.238Z" style="fill:#ff0300;"/><path d="M1214.61,2703.04l0,-843.55c-42.891,-25.904 -85.787,-19.767 -128.679,-0l0,119.937c-61.954,-92.667 -151.446,-139 -268.475,-139c-50.833,0 -97.566,9.133 -140.196,27.4c-42.624,18.271 -74.533,42.234 -95.712,71.888c-21.183,29.654 -36.012,64.866 -44.483,105.641c-5.292,26.475 -7.942,72.813 -7.942,139.005l-0,518.679c42.333,16.875 89.758,17.67 142.975,-0l0,-513.121c0,-58.25 5.563,-101.804 16.679,-130.663c11.121,-28.858 30.846,-51.896 59.179,-69.104c28.33,-17.208 61.559,-25.816 99.684,-25.816c60.895,-0 113.454,19.329 157.67,57.987c44.217,38.654 66.325,111.996 66.325,220.021l0,460.696c47.659,17.17 95.317,15.483 142.975,-0Z" style="fill:#fff;fill-rule:nonzero;"/><path d="M1380.62,2703.04l0,-123.909c65.663,95.317 154.888,142.975 267.679,142.975c49.775,0 96.246,-9.533 139.4,-28.596c43.159,-19.062 75.196,-43.024 96.113,-71.887c20.916,-28.858 35.612,-64.204 44.083,-106.038c5.825,-28.066 8.737,-72.545 8.737,-133.441l0,-522.654c-47.658,-22.388 -95.316,-22.388 -142.974,-0l-0,467.846c-0,74.662 -2.913,124.97 -8.738,150.916c-9,37.596 -28.067,67.121 -57.192,88.567c-29.121,21.446 -65.129,32.167 -108.025,32.167c-42.891,-0 -83.137,-10.988 -120.733,-32.963c-37.596,-21.975 -64.204,-51.896 -79.829,-89.754c-15.621,-37.863 -23.429,-92.804 -23.429,-164.821l-0,-451.958c-39.055,-22.371 -85.45,-25.654 -142.975,-0l-0,843.55c40.379,17.983 83.008,17.983 127.883,-0Z" style="fill:#fff;fill-rule:nonzero;"/></g></svg>